/* XPM */
static char * a_xpm[] = {
"13 19 8 1",
" 	c #FFFFFF",
".	c #0E0D0E",
"+	c #D2202C",
"@	c #EADFD1",
"#	c #7C776F",
"$	c #B3AAA1",
"%	c #0A7030",
"&	c #EBA724",
" .......     ",
"..+++++..    ",
".+..++++.    ",
".....++..... ",
"  .@@@#####. ",
"  .@.........",
"  .#.@@@$$$$.",
"  .#.@.$.$.$.",
"  .#.$.$.$.$.",
"  .#.$.$.$.$.",
"  .#.$$$$$$$.",
" ............",
" .%%%&&&&&&. ",
" .%%%&...... ",
" .%%%&.####. ",
" .%%%&.####. ",
" .%%%&...$$. ",
" .&&&&...$.. ",
" ...... ...  "};
