/* XPM */
static const char *exit[] = {
/* columns rows colors chars-per-pixel */
"32 32 6 1 ",
"  c black",
". c #0C1317",
"X c #211D1D",
"o c #31314B",
"O c #6F5756",
"+ c None",
/* pixels */
"++++++++++++++++++++++++++++++++",
"++++++++++++++++++++++++++++++++",
"++++++++++++++++++++++++++++++++",
"++++++++++++++++++++++++++++++++",
"++++++++++++++++++++++++++++++++",
"++++++++++++++++++++++++++++++++",
"OOOOOOOOOOOOOOOOOOOOOOOOOOOOOOOO",
"OOOOOOOOOOOOOOOOOOOOOOOOOOOOOOOO",
"OO                            OO",
"OO                     XXXXX  OO",
"OO oooooo              XXXXX  OO",
"OO oooooo              XXXXX  OO",
"OO oooooo                     OO",
"OO oooooo           XXXXX     OO",
"OO oooooo           XXXXX     OO",
"OO oooooo oooooo    XXXXX     OO",
"OO oooooo oooooo              OO",
"OO oooooo oooooo              OO",
"OO oooooo.oooooo              OO",
"OO oooooo.oooooo              OO",
"OO oooooo.oooooo              OO",
"OO oooooo.oooooo.oooooo       OO",
"OO oooooo.oooooo.oooooo       OO",
"OO oooooo.oooooo.oooooo       OO",
"OO oooooo.oooooo.oooooo       OO",
"OO oooooo.oooooo.oooooo       OO",
"OO oooooo.oooooo.oooooo ooooo OO",
"OO oooooo.oooooo.oooooo ooooo OO",
"OO oooooo.oooooo.oooooo.ooooo OO",
"OO oooooo.oooooo.oooooo.ooooo OO",
"OOOOOOOOOOOOOOOOOOOOOOOOOOOOOOOO",
"OOOOOOOOOOOOOOOOOOOOOOOOOOOOOOOO"
};
