/* XPM */
static const char *hero[] = {
/* columns rows colors chars-per-pixel */
"32 32 11 1 ",
"  c black",
". c #5A5875",
"X c #D41900",
"o c #A84111",
"O c #FF4D00",
"+ c #D95763",
"@ c #42428F",
"# c #8D768A",
"$ c #A5B5D4",
"% c #DEF9FC",
"& c None",
/* pixels */
"&&&&&&&&&&&&&&&&&&&&&&&&&&&&&&&&",
"&&&&&&&&&&&&&%%%&&&&&&&&&&&&&&&&",
"&&&&&%&&&&&&%%$$$&&&&&&&&&&&&&&&",
"&&&&%$&&&&&%%$$$$$&&&&&&&&&&&&&&",
"&&&&%$&&&&$%$$$$$$&&&&&&&&&&&&&&",
"&&&&%$&&&& $   $$$&&&&&&&&&&&&&&",
"&&&&%$&&&&$%$$$$..&&&&&&&&&&&&&&",
"&&&&%$&&$&.$......&&$&&&&&&&&&&&",
"&&&&%$&&$+.$.....++$.&&&&&&&&&&&",
"&&&&%$&&$X+++++++.$.$$&&&&&&&&&&",
"&&&&%$&&.+XXXX++.$.$$$$&&&&&&&&&",
"&&&&%$&&.$+++++.$.$$$$$&&&&&&&&&",
"&&&&%$&&.$$%$$$.$$$$$$$&&&&&&&&&",
"&&&OOOO&.$$%$$$.$$$$$$.&&&&&&&&&",
"&&&&$$&..$$%$$$$.$$$$.$$&&&&&&&&",
"&&&$$$$...$%$$$$$....$$$&&&&&&&&",
"&&&$$$$..&o$%$$oo$&&.....&&&&&&&",
"&&&$$$...$$oooo$$$$&&$$$$&&&&&&&",
"&&&&$$.&&$$$$$$$$$$$&$$$&&&&&&&&",
"&&&&OO&&$$#$$#$$$$$$&$$$&&&&&&&&",
"&&&&&&&&$$##$##$$$$&$$$$&&&&&&&&",
"&&&&&&&&&###@######&$.$$&&&&&&&&",
"&&&&&&&&&###@@&##$#&&$$&&&&&&&&&",
"&&&&&&&&&&#@@@&#$$$&&&&&&&&&&&&&",
"&&&&&&&&&&@@@&&&$$$.&&&&&&&&&&&&",
"&&&&&&&&&&@@@&&&.$.$&&&&&&&&&&&&",
"&&&&&&&&&&@@@&&&&.$$&&&&&&&&&&&&",
"&&&&&&&&&&@@@&&&&$$$&&&&&&&&&&&&",
"&&&&&&&&&@@@@&&&&$$$&&&&&&&&&&&&",
"&&&&&&&&&&&&&&&&&$$$&&&&&&&&&&&&",
"&&&&&&&&&&&&&&&&&&&&&&&&&&&&&&&&",
"&&&&&&&&&&&&&&&&&&&&&&&&&&&&&&&&"
};
