/* XPM */
static char * hero_xpm[] = {
"32 32 12 1",
" 	c None",
".	c #222034",
"+	c #DEF9FC",
"@	c #A5B5D4",
"#	c #000000",
"$	c #5A5875",
"%	c #D95763",
"&	c #D41900",
"*	c #FF4D00",
"=	c #A84111",
"-	c #8D768A",
";	c #42428F",
"................................",
".............+++................",
".....+......++@@@...............",
"....+@.....++@@@@@..............",
"....+@....@+@@@@@@..............",
"....+@....#@###@@@..............",
"....+@....@+@@@@$$..............",
"....+@..@.$@$$$$$$..@...........",
"....+@..@%$@$$$$$%%@$...........",
"....+@..@&%%%%%%%$@$@@..........",
"....+@..$%&&&&%%$@$@@@@.........",
"....+@..$@%%%%%$@$@@@@@.........",
"....+@..$@@+@@@$@@@@@@@.........",
"...****.$@@+@@@$@@@@@@$.........",
"....@@ $$@@+@@@@$@@@@$@@........",
"...@@@@$$$@+@@@@@$$$$@@@........",
"...@@@@$$ =@+@@==@  $$$$$.......",
"...@@@$$$@@====@@@@  @@@@.......",
"....@@$..@@@@@@@@@@@ @@@........",
"....**..@@-@@-@@@@@@ @@@........",
"........@@--@--@@@@.@@@@........",
".........---;------.@$@@........",
".........---;;.--@-..@@.........",
"..........-;;;.-@@@.............",
"..........;;;...@@@$............",
"..........;;;...$@$@............",
"..........;;;....$@@............",
"..........;;;....@@@............",
".........;;;;....@@@............",
".................@@@............",
"................................",
"................................"};
