/* XPM */
static char * item_xpm[] = {
"32 32 8 1",
" 	c None",
".	c #222034",
"+	c #8D768A",
"@	c #E17B50",
"#	c #A84111",
"$	c #0C1317",
"%	c #31314B",
"&	c #70162B",
"................................",
"................................",
"................................",
"................................",
"................................",
"................................",
"....++........+++........++.....",
"....++@@@@@@@@+++@@@@@@@@++.....",
"....++@@@@@@@@+++@@@@@@@@++.....",
"....++@@@@@@@@+++@@@@@@@@++.....",
"....++@@@@@@@@+++@@@@@@@@++.....",
"....++@####@@@+++@@@@@@@@++.....",
"....++@@@@@@@@+++@@@@@@@@++.....",
"....++@@@@@@@@+++@@@@@@@@++.....",
"....++@@@@@@@@+++@@@@@@@@++.....",
"....+++++++++++++++++++++++.....",
"....$$$$$$$$$$+++$$$$$$$$$$.....",
"....%%%%%%%%%$+++ %%%%%%%%%.....",
"....%%#######$$$$$#######%%.....",
"....%%#######$$$$$#######%%.....",
"....%%###################%%.....",
"....%%&&&#####&&######&&&%%.....",
"....%%###################%%.....",
"....%%###################%%.....",
"....%%%%%%%%%%%%%%%%%%%%%%%.....",
"................................",
"................................",
"................................",
"................................",
"................................",
"................................",
"................................"};
