/* XPM */
static const char *wall3[] = {
/* columns rows colors chars-per-pixel */
"32 32 3 1 ",
"  c #0C1317",
". c #323C39",
"X c #696A6A",
/* pixels */
"      ........    .XXXXXXX...   ",
" ....XXXXXXX......XXXXXXXXXX... ",
" ...XXXXXXXXXXXXXX..XXXXXXXXXXX.",
"...XXXX...XXXXXXX....XXXXXXXXXXX",
".X.XXX.....XXXXXX....XXXXXXXXXXX",
".XXXXX.....XXXXXXX..XXX....XXXXX",
".XXXXX.....XXXXXXXXXXX......XXXX",
"XX..XXX...XXXXXXXXXXX........XXX",
"X....XXXXXXXXXXXXXXX.........XXX",
"X....XXXXXXXXXXXXXXX.........XXX",
"X...XXXXXXXXXXXXXXXX.........XXX",
"XXXXXXXXXXXXXXXXXXXX........XXXX",
"XXXXXXXXXXXXXXXXXXXXX......XXXXX",
".XXXXXXX...XXXXXXXXXXX....XXXXXX",
" XXXXXX.....XXXXXXXXXXXXXXXXXXXX",
" XXXXX.......XXXXXXXXXXXXXXXX..X",
" .XXXX........XXXXX..XXXXXXX....",
" ..XXX...... .XXXX....XXXXXX....",
"   ... .....  .....    ..... .  ",
"  ....  ...   ...............   ",
" ......      .................. ",
" ................   ............",
" ..............      ...........",
" .............       ....   ....",
"  ..   ......        ...     ...",
"  .     .....       ....     ...",
"...     .....      .....     ...",
"...      .....    .......   ....",
" ...     ..  .................. ",
" ...     .    ................. ",
" ....   ..    .......   ....... ",
"  .........   ......     .....  "
};
